# xmcd
#
# Track frame offsets:
#	150
#	8139
#	20387
#	27483
#	38060
#	48273
#	58960
#	66786
#	76431
#	87994
#	100432
#	111589
#	119333
#	132153
#	136360
#
# Disc length: 1868 seconds
#
# Revision: 1
# Processed by: cddbd v1.5.2PL0 Copyright (c) Steve Scherf et al.
# Submitted via: FairStars CD Ripper 1.50
#
DISCID=d0074a0f
DTITLE=Stan Jones - Creakin' Leather
DYEAR=1957
DGENRE=Country
TTITLE0=Creakin' Leather
TTITLE1=Deep Water
TTITLE2=Sedona, Arizona
TTITLE3=Burro Lullaby
TTITLE4=Wedding Day
TTITLE5=Cottonwood Tree
TTITLE6=Wringle Wrangle
TTITLE7=Snooze In The Quiet Air
TTITLE8=The Wooly Lamb Song
TTITLE9=El Diablo
TTITLE10=Hunter's Return
TTITLE11=Too Young To Marry
TTITLE12=Ghost Riders In The Sky
TTITLE13=Texas John Slaughter (Single, 1958)
TTITLE14=Sons Of Old Aunt Dinah (From The Film ''The Great Locomotive Chase'', 1956)
EXTD=
EXTT0=
EXTT1=
EXTT2=
EXTT3=
EXTT4=
EXTT5=
EXTT6=
EXTT7=
EXTT8=
EXTT9=
EXTT10=
EXTT11=
EXTT12=
EXTT13=
EXTT14=
PLAYORDER=
